<svg width="92" height="148" viewBox="0 0 92 148" fill="none" xmlns="http://www.w3.org/2000/svg">
<path d="M37.8296 71.6223C39.7619 70.9968 41.6511 70.1609 43.5971 69.7627C52.5164 67.6859 60.9604 63.9349 68.4808 58.7088C70.564 56.968 72.4004 54.9516 73.9393 52.715C74.867 51.5717 75.2833 50.018 76.2574 48.8872C79.4538 45.1207 79.1511 40.9634 77.8789 36.6209C76.6035 32.1689 74.4095 28.0334 71.4384 24.4811C70.7789 23.6066 69.8977 22.9243 68.886 22.5047C62.4956 20.1959 56.1487 17.7247 49.6046 15.8967C43.0711 14.3168 36.2388 14.4648 29.7798 16.3261C23.3647 17.9128 17.1789 20.4061 12.9333 25.9544C11.8135 27.4439 10.1018 28.4516 8.90781 29.8467C7.87102 31.2517 6.93542 32.7286 6.10804 34.2663C4.86579 33.3369 5.2386 31.9455 5.32693 30.5028C5.41526 29.06 5.13131 27.2441 2.48634 27.6538C2.28816 23.74 3.25973 19.8559 5.2772 16.4962C8.57905 11.445 13.4113 7.58348 19.0665 5.47709C26.5219 2.0754 34.5869 0.212543 42.779 -5.06214e-06C46.1661 0.0494985 49.5198 0.679098 52.6943 1.86145C64.4791 6.48562 74.2312 14.2436 84.1937 21.9585C84.481 22.1847 84.5903 22.6116 84.7708 22.9582C83.3985 22.1432 81.9256 21.4254 80.637 20.4836C75.9367 17.0618 71.2907 13.5302 66.6028 10.0621C66.1114 9.52233 65.4864 9.12164 64.7908 8.90035C64.0952 8.67906 63.3536 8.645 62.6407 8.80159C66.1471 12.2266 68.9143 15.6275 73.1385 17.5796C75.7478 19.0023 78.2243 20.6558 80.5387 22.5202C82.2538 23.7254 83.8559 25.0743 85.5292 26.3429L85.938 25.9304L84.669 22.7818C85.7899 23.2872 86.7804 24.0422 87.5649 24.989C88.3493 25.9358 88.907 27.0494 89.1952 28.2448C90.8474 32.1655 91.6526 36.3912 91.5579 40.6448C91.4633 44.8984 90.471 49.0841 88.646 52.9275C86.8605 57.7615 83.9349 62.0933 80.1175 65.5551C73.9439 70.5039 66.5375 73.6753 58.6955 74.7279C52.9868 75.8497 47.3397 77.2651 41.7767 78.9682C41.1331 79.1437 40.5479 79.658 39.9123 79.7114C30.3694 80.634 24.3601 86.8282 18.7706 93.6817C17.9204 94.7214 17.1844 95.8913 16.4377 97.0085C13.0896 102.176 12.901 103.343 14.5599 108.933C11.2541 108.469 13.3834 103.398 9.80678 103.111C8.60133 107.609 8.7723 108.177 12.025 110.416L10.2405 111.603L11.823 113.767C11.6341 113.915 11.4142 114.179 11.2751 114.142C7.58793 113.154 7.61111 113.16 7.39322 109.15C7.40005 108.07 7.20679 106.999 6.82324 105.99C5.79203 103.682 5.27719 101.177 5.31468 98.6503C5.35216 96.1231 5.94109 93.6346 7.04027 91.3588C8.74628 86.8914 11.4148 82.8545 14.8564 79.5345C16.7434 78.0483 18.7592 76.7335 20.88 75.6059C21.2523 75.979 21.7462 76.7327 21.9922 76.6495C26.6254 75.4055 31.2868 73.8708 35.9234 72.4289L37.8296 71.6223ZM29.9146 4.50649C30.4016 4.63698 30.9067 5.0706 31.3523 4.89174C35.0276 4.16156 38.6521 3.34318 42.9307 2.40186C41.9692 2.15245 40.9762 2.0455 39.9835 2.0844C36.6114 2.79638 33.2777 3.64295 29.9519 4.36736C29.5344 4.69039 29.0913 4.97897 28.627 5.23025C21.4101 8.39294 14.7651 12.7261 8.96059 18.0549C7.99251 18.7896 7.18415 19.7137 6.58468 20.7709C5.98521 21.828 5.60719 22.9962 5.47367 24.2041C10.042 18.1012 16.0212 13.1962 22.8995 9.90923C24.9782 8.91228 26.9961 7.79308 28.9425 6.55752C29.4639 6.37411 29.5642 5.25767 29.9084 4.52969L29.9146 4.50649ZM84.9472 38.4403L82.6482 36.6312C81.6373 41.3313 80.5404 45.6106 79.7743 49.9538C79.3998 54.3059 77.5918 58.4108 74.6338 61.6251C74.2238 62.1185 73.851 62.6417 73.5184 63.1903C77.0329 60.988 79.9977 58.0117 82.1866 54.4888C84.3754 50.9659 85.7304 46.9895 86.1482 42.8631C86.3833 44.1191 87.0573 45.5922 86.7839 46.6125C86.1862 49.1046 85.2586 51.5057 84.0257 53.7524C82.2435 56.8788 79.9359 59.7401 78.0332 62.7597C79.0948 62.5414 80.0819 62.0524 80.899 61.3403C86.2477 56.6146 89.574 50.0127 90.1891 42.902C90.7593 38.0838 90.6843 33.5402 87.2106 29.9002C84.5726 27.1304 81.4375 24.824 78.5332 22.3059L77.7127 22.956C78.6047 24.0906 79.423 25.2812 80.1627 26.5204C82.1191 30.3503 84.6556 33.9629 85.0569 38.4945L84.9472 38.4403ZM15.107 21.367C20.0327 18.6604 24.5388 16.3136 28.9091 13.7316C32.7915 11.1582 37.427 9.96647 42.0691 10.3482C45.0333 10.6951 48.0489 10.7574 50.9571 11.313C54.289 11.9572 57.4966 13.0652 61.4157 14.1154C49.7154 3.42446 26.3477 6.40905 15.0776 21.384L15.107 21.367ZM32.5707 14.1659C43.5892 11.7248 53.6663 15.3943 63.7302 18.4638C56.8702 11.8784 40.0566 9.51069 32.5645 14.1891L32.5707 14.1659ZM12.3062 91.2785C13.9168 89.3489 15.39 87.283 17.155 85.519C19.0771 83.6068 21.1307 81.8316 23.3009 80.2065C25.2064 78.7535 27.3404 77.5606 29.3307 76.2547C25.2751 76.6672 21.4509 78.3407 18.3959 81.0398C15.3409 83.7389 13.209 87.3278 12.3 91.3017L12.3062 91.2785ZM77.1766 54.8252L76.276 54.0122L63.7638 66.666C69.6589 64.1446 74.8604 60.965 77.1766 54.8252ZM22.0695 6.97767C16.2883 8.61002 11.168 11.1154 8.1797 16.7023L22.0695 6.97767ZM78.3597 26.3853C76.0271 22.1771 72.3989 18.834 68.0143 16.8528C69.7922 21.2562 73.3972 23.6637 78.3597 26.3853ZM48.4498 5.27255C45.9387 4.32006 43.2378 3.97527 40.568 4.26639C37.8981 4.55751 35.335 5.47625 33.0881 6.94755L48.4498 5.27255ZM51.1716 69.8784C56.9935 70.3199 58.9122 69.467 61.3293 65.6408L51.1716 69.8784ZM44.2139 76.3653L43.7464 75.4198C39.734 75.8336 35.9283 77.4044 32.792 79.941L44.2139 76.3653ZM80.1764 35.7452L80.9008 35.2682C80.6016 33.5034 79.8859 31.8354 78.8131 30.4025C77.7404 28.9696 76.3414 27.8131 74.7324 27.0289L80.1764 35.7452ZM14.5627 17.3687C11.7791 18.7255 9.62757 21.1055 8.55758 24.0114C11.0109 22.1833 13.6883 20.5395 14.5876 17.276L14.5627 17.3687ZM10.5828 89.1763C7.53957 92.8347 7.27574 93.6339 7.68004 96.9485C8.74746 94.078 9.66283 91.5892 10.5828 89.1763ZM56.3335 6.73876L61.7563 11.1744C60.6659 7.45223 60.275 7.14865 56.2996 6.67995L56.3335 6.73876ZM20.6034 89.6244L19.8374 88.7729L16.6235 92.8827L17.3652 93.4542C18.4941 92.1163 19.5519 90.8588 20.6158 89.578L20.6034 89.6244ZM11.2402 100.636L12.1678 100.885C12.4101 99.9806 12.7747 99.0841 13.0866 98.1984L12.3445 97.9995C11.963 98.8666 11.4888 99.7089 11.2402 100.636ZM58.0779 72.6734L57.9086 72.0067L55.2851 72.5216C55.339 72.7846 55.3928 73.0476 55.4698 73.3167L58.0779 72.6734Z" fill="#FFD600"/>
<path d="M13.1994 129.222C16.3026 130.998 19.7214 132.71 23.0328 134.914C25.1281 136.371 24.9333 137.561 22.8436 139.238C21.8989 139.956 21.1321 140.882 20.6026 141.943C20.0828 143.185 19.3144 144.307 18.3448 145.241C17.3751 146.174 16.2248 146.9 14.9644 147.372C13.704 147.845 12.3603 148.054 11.0159 147.988C9.67146 147.922 8.35478 147.581 7.14688 146.987C3.15004 145.022 1.49346 141.372 0.0597062 137.632C-0.0047859 137.375 -0.0171771 137.107 0.0232378 136.844C0.0636524 136.582 0.156112 136.33 0.295107 136.104C1.45295 134.249 2.98607 132.657 4.79594 131.43C6.60582 130.203 8.6524 129.368 10.8042 128.978C11.6095 128.964 12.4135 129.046 13.1994 129.222ZM17.1916 141.502C15.0084 141.116 13.3156 140.662 11.6178 140.505C9.91995 140.349 8.72083 138.238 6.99878 140.212C10.448 143.572 12.6498 143.889 17.1916 141.502ZM15.435 145.182L4.28079 142.193C7.81193 146.917 11.0601 147.688 15.4413 145.159L15.435 145.182ZM17.0692 139.083C14.6056 135.291 14.148 135.144 11.0047 137.135C11.7069 138.033 12.6627 138.699 13.7482 139.048C14.8336 139.396 15.9987 139.411 17.0925 139.089L17.0692 139.083ZM18.0261 135.512L20.2274 137.593C20.8426 135.297 19.6334 135.172 18.003 135.505L18.0261 135.512Z" fill="#FFD600"/>
<path d="M35.985 72.5698L27.2608 72.9413C30.5186 71.2772 34.2599 70.8183 37.8233 71.6456L35.985 72.5698Z" fill="#FFD600"/>
<path d="M27.4543 72.8688L23.414 74.8682C24.1571 72.9298 25.7995 72.9225 27.4543 72.8688Z" fill="#FFD600"/>
<path d="M86.3133 43.0814L84.9318 38.312L86.3133 43.0814Z" fill="#FFD600"/>
<path d="M12.7226 88.7117L9.70565 85.6947L7.19154 90.723L21.7734 101.282L12.7226 88.7117Z" fill="#66B6FF"/>
</svg>
