<svg width="24" height="21" viewBox="0 0 24 21" fill="none" xmlns="http://www.w3.org/2000/svg">
<path d="M23.8362 9.79216C22.3794 7.8836 20.6298 6.21756 18.6522 4.85592L22.0345 1.47367C22.375 1.14481 22.3844 0.602201 22.0556 0.261691C21.7267 -0.0788196 21.1841 -0.0882615 20.8436 0.240597C20.8365 0.247478 20.8294 0.254509 20.8225 0.261691L17.1274 3.95336C15.5546 3.08773 13.795 2.61709 12 2.58193C5.48577 2.58193 0.378115 9.4973 0.163814 9.79211C-0.0546047 10.0926 -0.0546047 10.4996 0.163814 10.8001C1.62058 12.7086 3.37019 14.3747 5.34776 15.7363L1.96551 19.1186C1.625 19.4474 1.61555 19.99 1.94441 20.3306C2.27327 20.6711 2.81588 20.6805 3.15639 20.3516C3.16352 20.3448 3.17055 20.3377 3.17748 20.3306L6.87257 16.6389C8.4454 17.5045 10.205 17.9752 12 18.0103C18.5142 18.0103 23.6219 11.0949 23.8362 10.8001C24.0546 10.4997 24.0546 10.0926 23.8362 9.79216ZM6.59404 14.4927C4.84794 13.3297 3.2828 11.9157 1.94923 10.2961C3.21093 8.76787 7.30288 4.29619 12 4.29619C13.3364 4.32321 14.6503 4.64518 15.8477 5.23902L14.3597 6.72702C12.3909 5.41997 9.73537 5.95635 8.42832 7.92508C7.4762 9.35919 7.4762 11.2243 8.42832 12.6584L6.59404 14.4927ZM14.3143 9.19471C14.482 9.53773 14.57 9.9143 14.5714 10.2961C14.5714 11.7163 13.4202 12.8676 12 12.8676C11.6182 12.8661 11.2416 12.7782 10.8986 12.6104L14.3143 9.19471ZM9.68575 11.3975C9.518 11.0545 9.43006 10.6779 9.42861 10.2961C9.42861 8.87595 10.5799 7.72469 12 7.72469C12.3819 7.72615 12.7584 7.81409 13.1014 7.98183L9.68575 11.3975ZM12 16.2961C10.6636 16.269 9.34981 15.9471 8.15235 15.3532L9.64035 13.8652C11.6091 15.1723 14.2647 14.6359 15.5717 12.6672C16.5238 11.2331 16.5238 9.36798 15.5717 7.93387L17.406 6.09958C19.1521 7.26254 20.7172 8.67661 22.0508 10.2961C20.789 11.8244 16.6971 16.2961 12 16.2961Z" fill="black"/>
</svg>
